<mxfile host="Electron" agent="Mozilla/5.0 (Macintosh; Intel Mac OS X 10_15_7) AppleWebKit/537.36 (KHTML, like Gecko) draw.io/26.0.16 Chrome/132.0.6834.196 Electron/34.2.0 Safari/537.36" version="26.0.16">
  <diagram name="Page-1" id="hiQx0ptXW41FsAeKGRu4">
    <mxGraphModel dx="1154" dy="898" grid="1" gridSize="10" guides="1" tooltips="1" connect="1" arrows="1" fold="1" page="1" pageScale="1" pageWidth="850" pageHeight="1100" math="0" shadow="0">
      <root>
        <mxCell id="0" />
        <mxCell id="1" parent="0" />
        <mxCell id="BYSC5cJ-ouRIczsv33s2-2" value="&lt;font style=&quot;font-size: 40px;&quot;&gt;Burza&lt;/font&gt;" style="rounded=0;whiteSpace=wrap;html=1;" parent="1" vertex="1">
          <mxGeometry x="40" y="30" width="220" height="690" as="geometry" />
        </mxCell>
        <mxCell id="BYSC5cJ-ouRIczsv33s2-3" value="&lt;font style=&quot;font-size: 40px;&quot;&gt;Zprávy&lt;/font&gt;" style="rounded=0;whiteSpace=wrap;html=1;" parent="1" vertex="1">
          <mxGeometry x="680" y="30" width="230" height="670" as="geometry" />
        </mxCell>
        <mxCell id="BYSC5cJ-ouRIczsv33s2-10" value="" style="endArrow=classic;html=1;rounded=0;exitX=1;exitY=0.923;exitDx=0;exitDy=0;exitPerimeter=0;entryX=0.014;entryY=0.196;entryDx=0;entryDy=0;entryPerimeter=0;" parent="1" source="BYSC5cJ-ouRIczsv33s2-6" target="BYSC5cJ-ouRIczsv33s2-3" edge="1">
          <mxGeometry width="50" height="50" relative="1" as="geometry">
            <mxPoint x="490" y="180" as="sourcePoint" />
            <mxPoint x="540" y="130" as="targetPoint" />
          </mxGeometry>
        </mxCell>
        <mxCell id="BYSC5cJ-ouRIczsv33s2-11" value="" style="endArrow=classic;html=1;rounded=0;exitX=0.993;exitY=0.067;exitDx=0;exitDy=0;exitPerimeter=0;entryX=0.014;entryY=0.196;entryDx=0;entryDy=0;entryPerimeter=0;" parent="1" source="BYSC5cJ-ouRIczsv33s2-2" target="BYSC5cJ-ouRIczsv33s2-5" edge="1">
          <mxGeometry width="50" height="50" relative="1" as="geometry">
            <mxPoint x="262" y="159" as="sourcePoint" />
            <mxPoint x="682" y="161" as="targetPoint" />
          </mxGeometry>
        </mxCell>
        <mxCell id="BYSC5cJ-ouRIczsv33s2-5" value="vyhodnoť akcie:" style="swimlane;fontStyle=0;childLayout=stackLayout;horizontal=1;startSize=26;fillColor=none;horizontalStack=0;resizeParent=1;resizeParentMax=0;resizeLast=0;collapsible=1;marginBottom=0;whiteSpace=wrap;html=1;" parent="1" vertex="1">
          <mxGeometry x="390" y="80" width="140" height="102" as="geometry" />
        </mxCell>
        <mxCell id="BYSC5cJ-ouRIczsv33s2-6" value="&quot;name&quot;: &quot;Nvidia&quot;" style="text;strokeColor=none;fillColor=none;align=left;verticalAlign=top;spacingLeft=4;spacingRight=4;overflow=hidden;rotatable=0;points=[[0,0.5],[1,0.5]];portConstraint=eastwest;whiteSpace=wrap;html=1;" parent="BYSC5cJ-ouRIczsv33s2-5" vertex="1">
          <mxGeometry y="26" width="140" height="24" as="geometry" />
        </mxCell>
        <mxCell id="BYSC5cJ-ouRIczsv33s2-7" value="&quot;from&quot;: YYYY-MM-DD" style="text;strokeColor=none;fillColor=none;align=left;verticalAlign=top;spacingLeft=4;spacingRight=4;overflow=hidden;rotatable=0;points=[[0,0.5],[1,0.5]];portConstraint=eastwest;whiteSpace=wrap;html=1;" parent="BYSC5cJ-ouRIczsv33s2-5" vertex="1">
          <mxGeometry y="50" width="140" height="26" as="geometry" />
        </mxCell>
        <mxCell id="BYSC5cJ-ouRIczsv33s2-8" value="&quot;to&quot;: YYYY-MM-DD" style="text;strokeColor=none;fillColor=none;align=left;verticalAlign=top;spacingLeft=4;spacingRight=4;overflow=hidden;rotatable=0;points=[[0,0.5],[1,0.5]];portConstraint=eastwest;whiteSpace=wrap;html=1;" parent="BYSC5cJ-ouRIczsv33s2-5" vertex="1">
          <mxGeometry y="76" width="140" height="26" as="geometry" />
        </mxCell>
        <mxCell id="BYSC5cJ-ouRIczsv33s2-12" value="/submit" style="text;html=1;align=center;verticalAlign=middle;whiteSpace=wrap;rounded=0;" parent="1" vertex="1">
          <mxGeometry x="680" y="152" width="60" height="30" as="geometry" />
        </mxCell>
        <mxCell id="BYSC5cJ-ouRIczsv33s2-13" value="/output/request_id/status" style="text;html=1;align=center;verticalAlign=middle;whiteSpace=wrap;rounded=0;" parent="1" vertex="1">
          <mxGeometry x="680" y="220" width="150" height="30" as="geometry" />
        </mxCell>
        <mxCell id="BYSC5cJ-ouRIczsv33s2-16" value="" style="endArrow=classic;html=1;rounded=0;exitX=0;exitY=0.5;exitDx=0;exitDy=0;entryX=0.997;entryY=0.394;entryDx=0;entryDy=0;entryPerimeter=0;" parent="1" source="BYSC5cJ-ouRIczsv33s2-17" target="BYSC5cJ-ouRIczsv33s2-2" edge="1">
          <mxGeometry width="50" height="50" relative="1" as="geometry">
            <mxPoint x="490" y="330" as="sourcePoint" />
            <mxPoint x="540" y="280" as="targetPoint" />
          </mxGeometry>
        </mxCell>
        <mxCell id="BYSC5cJ-ouRIczsv33s2-18" value="" style="endArrow=classic;html=1;rounded=0;exitX=-0.003;exitY=0.312;exitDx=0;exitDy=0;exitPerimeter=0;entryX=1;entryY=0.25;entryDx=0;entryDy=0;" parent="1" source="BYSC5cJ-ouRIczsv33s2-3" target="BYSC5cJ-ouRIczsv33s2-17" edge="1">
          <mxGeometry width="50" height="50" relative="1" as="geometry">
            <mxPoint x="679" y="239" as="sourcePoint" />
            <mxPoint x="259" y="294" as="targetPoint" />
          </mxGeometry>
        </mxCell>
        <mxCell id="BYSC5cJ-ouRIczsv33s2-17" value="{process&lt;span style=&quot;background-color: transparent; color: light-dark(rgb(0, 0, 0), rgb(255, 255, 255));&quot;&gt;ing, done}&lt;/span&gt;" style="text;html=1;align=center;verticalAlign=middle;whiteSpace=wrap;rounded=0;labelBorderColor=none;strokeColor=default;" parent="1" vertex="1">
          <mxGeometry x="415" y="250" width="115" height="30" as="geometry" />
        </mxCell>
        <mxCell id="BYSC5cJ-ouRIczsv33s2-20" value="" style="endArrow=classic;html=1;rounded=0;exitX=1.006;exitY=0.452;exitDx=0;exitDy=0;exitPerimeter=0;" parent="1" source="BYSC5cJ-ouRIczsv33s2-2" edge="1">
          <mxGeometry width="50" height="50" relative="1" as="geometry">
            <mxPoint x="580" y="410" as="sourcePoint" />
            <mxPoint x="680" y="422" as="targetPoint" />
          </mxGeometry>
        </mxCell>
        <mxCell id="BYSC5cJ-ouRIczsv33s2-24" value="/output/request_id" style="text;html=1;align=center;verticalAlign=middle;whiteSpace=wrap;rounded=0;" parent="1" vertex="1">
          <mxGeometry x="680" y="410" width="110" height="30" as="geometry" />
        </mxCell>
        <mxCell id="BYSC5cJ-ouRIczsv33s2-25" value="" style="endArrow=classic;html=1;rounded=0;exitX=0;exitY=0.5;exitDx=0;exitDy=0;entryX=0.991;entryY=0.851;entryDx=0;entryDy=0;entryPerimeter=0;" parent="1" edge="1">
          <mxGeometry width="50" height="50" relative="1" as="geometry">
            <mxPoint x="400" y="500" as="sourcePoint" />
            <mxPoint x="257.02999999999975" y="530.1700000000001" as="targetPoint" />
          </mxGeometry>
        </mxCell>
        <mxCell id="BYSC5cJ-ouRIczsv33s2-30" value="" style="endArrow=classic;html=1;rounded=0;exitX=-0.003;exitY=0.642;exitDx=0;exitDy=0;entryX=1;entryY=0.25;entryDx=0;entryDy=0;exitPerimeter=0;" parent="1" source="BYSC5cJ-ouRIczsv33s2-3" target="BYSC5cJ-ouRIczsv33s2-26" edge="1">
          <mxGeometry width="50" height="50" relative="1" as="geometry">
            <mxPoint x="680" y="433" as="sourcePoint" />
            <mxPoint x="262" y="517" as="targetPoint" />
          </mxGeometry>
        </mxCell>
        <mxCell id="BYSC5cJ-ouRIczsv33s2-26" value="Firmy" style="swimlane;fontStyle=0;childLayout=stackLayout;horizontal=1;startSize=30;horizontalStack=0;resizeParent=1;resizeParentMax=0;resizeLast=0;collapsible=1;marginBottom=0;whiteSpace=wrap;html=1;" parent="1" vertex="1">
          <mxGeometry x="391.25" y="470" width="170" height="90" as="geometry" />
        </mxCell>
        <mxCell id="BYSC5cJ-ouRIczsv33s2-27" value="&lt;div&gt;&quot;company_name&quot;:&quot;Nvidia&quot;&lt;/div&gt;&lt;br&gt;hodnota: &amp;lt;-10,10&amp;gt;" style="text;strokeColor=none;fillColor=none;align=left;verticalAlign=middle;spacingLeft=4;spacingRight=4;overflow=hidden;points=[[0,0.5],[1,0.5]];portConstraint=eastwest;rotatable=0;whiteSpace=wrap;html=1;" parent="BYSC5cJ-ouRIczsv33s2-26" vertex="1">
          <mxGeometry y="30" width="170" height="60" as="geometry" />
        </mxCell>
        <mxCell id="BYSC5cJ-ouRIczsv33s2-33" value="" style="endArrow=classic;html=1;rounded=0;exitX=0.989;exitY=1.133;exitDx=0;exitDy=0;exitPerimeter=0;entryX=0.003;entryY=0.936;entryDx=0;entryDy=0;entryPerimeter=0;" parent="1" source="BYSC5cJ-ouRIczsv33s2-39" target="BYSC5cJ-ouRIczsv33s2-3" edge="1">
          <mxGeometry width="50" height="50" relative="1" as="geometry">
            <mxPoint x="580" y="480" as="sourcePoint" />
            <mxPoint x="630" y="430" as="targetPoint" />
          </mxGeometry>
        </mxCell>
        <mxCell id="BYSC5cJ-ouRIczsv33s2-42" value="" style="endArrow=classic;html=1;rounded=0;exitX=0.994;exitY=0.813;exitDx=0;exitDy=0;exitPerimeter=0;entryX=0;entryY=0.5;entryDx=0;entryDy=0;" parent="1" source="BYSC5cJ-ouRIczsv33s2-2" target="BYSC5cJ-ouRIczsv33s2-39" edge="1">
          <mxGeometry width="50" height="50" relative="1" as="geometry">
            <mxPoint x="258" y="575" as="sourcePoint" />
            <mxPoint x="681" y="657" as="targetPoint" />
          </mxGeometry>
        </mxCell>
        <mxCell id="BYSC5cJ-ouRIczsv33s2-38" value="prodej tyto firmy" style="swimlane;fontStyle=0;childLayout=stackLayout;horizontal=1;startSize=30;horizontalStack=0;resizeParent=1;resizeParentMax=0;resizeLast=0;collapsible=1;marginBottom=0;whiteSpace=wrap;html=1;" parent="1" vertex="1">
          <mxGeometry x="402.5" y="580" width="140" height="90" as="geometry" />
        </mxCell>
        <mxCell id="BYSC5cJ-ouRIczsv33s2-39" value="&quot;name&quot;: &quot;Nvidia&quot;" style="text;strokeColor=none;fillColor=none;align=left;verticalAlign=middle;spacingLeft=4;spacingRight=4;overflow=hidden;points=[[0,0.5],[1,0.5]];portConstraint=eastwest;rotatable=0;whiteSpace=wrap;html=1;" parent="BYSC5cJ-ouRIczsv33s2-38" vertex="1">
          <mxGeometry y="30" width="140" height="30" as="geometry" />
        </mxCell>
        <mxCell id="BYSC5cJ-ouRIczsv33s2-40" value="&quot;status&quot;: {0,1}" style="text;strokeColor=none;fillColor=none;align=left;verticalAlign=middle;spacingLeft=4;spacingRight=4;overflow=hidden;points=[[0,0.5],[1,0.5]];portConstraint=eastwest;rotatable=0;whiteSpace=wrap;html=1;" parent="BYSC5cJ-ouRIczsv33s2-38" vertex="1">
          <mxGeometry y="60" width="140" height="30" as="geometry" />
        </mxCell>
        <mxCell id="BYSC5cJ-ouRIczsv33s2-43" value="/UI" style="text;html=1;align=center;verticalAlign=middle;whiteSpace=wrap;rounded=0;" parent="1" vertex="1">
          <mxGeometry x="680" y="640" width="50" height="30" as="geometry" />
        </mxCell>
        <mxCell id="BYSC5cJ-ouRIczsv33s2-45" value="&lt;h1 style=&quot;margin-top: 0px;&quot;&gt;/Submit&lt;/h1&gt;&lt;p&gt;GET, POST.&lt;br&gt;přijme data a začne zpracování&lt;br&gt;a vrátí request_id&lt;/p&gt;" style="text;html=1;whiteSpace=wrap;overflow=hidden;rounded=0;" parent="1" vertex="1">
          <mxGeometry x="910" y="92" width="180" height="98" as="geometry" />
        </mxCell>
        <mxCell id="BYSC5cJ-ouRIczsv33s2-46" value="&lt;h1 style=&quot;margin-top: 0px;&quot;&gt;/output&lt;/h1&gt;&lt;p&gt;/request_id/status - změna stavu jakmile bude done:&lt;br&gt;&lt;span style=&quot;background-color: transparent; color: light-dark(rgb(0, 0, 0), rgb(255, 255, 255));&quot;&gt;&lt;span style=&quot;white-space: pre;&quot;&gt;&#x9;&lt;/span&gt;/output/request_id&amp;nbsp;&lt;br&gt;&lt;span style=&quot;white-space: pre;&quot;&gt;&#x9;&lt;/span&gt;kde získají hodnocení firem&lt;br&gt;&lt;/span&gt;&lt;/p&gt;" style="text;html=1;whiteSpace=wrap;overflow=hidden;rounded=0;" parent="1" vertex="1">
          <mxGeometry x="910" y="305" width="180" height="120" as="geometry" />
        </mxCell>
        <mxCell id="BYSC5cJ-ouRIczsv33s2-47" value="&lt;h1 style=&quot;margin-top: 0px;&quot;&gt;/UI&lt;/h1&gt;&lt;p&gt;GET, POST.&lt;br&gt;přijme json s firmami které má prodat, prodá je a aktualizuje seznam sledovaných firem&lt;/p&gt;" style="text;html=1;whiteSpace=wrap;overflow=hidden;rounded=0;" parent="1" vertex="1">
          <mxGeometry x="910" y="500" width="180" height="120" as="geometry" />
        </mxCell>
      </root>
    </mxGraphModel>
  </diagram>
</mxfile>
